<svg xmlns="http://www.w3.org/2000/svg" width="161" height="95" viewBox="0 0 161 95" fill="none">
<path d="M8.58305 84.6103L0 75.0493V93.7429H2.57815V81.5311L8.58305 88.1179L14.5799 81.5311V93.7429H17.158V75.0493L8.58305 84.6103Z" fill="#f0eded"/>
<path d="M31.6007 91.9809C31.0269 92.6275 30.3238 93.1528 29.4833 93.5488C28.6427 93.9449 27.6648 94.1469 26.5576 94.1469C25.5231 94.1469 24.5856 93.9772 23.7451 93.6377C22.9045 93.2983 22.1933 92.8215 21.6114 92.2234C21.0295 91.6253 20.5769 90.898 20.2617 90.0574C19.9465 89.2169 19.793 88.2956 19.793 87.3015C19.793 86.3559 19.9627 85.475 20.2941 84.6425C20.6254 83.8101 21.0942 83.0827 21.6922 82.4685C22.2903 81.8462 23.0015 81.3612 23.8259 80.9975C24.6502 80.6339 25.5554 80.4561 26.5576 80.4561C27.6486 80.4561 28.6104 80.65 29.4428 81.038C30.2753 81.4259 30.9865 81.9512 31.5765 82.622L29.9439 84.198C29.556 83.7212 29.0872 83.3413 28.5296 83.0585C27.9719 82.7837 27.3173 82.6463 26.5576 82.6463C25.8949 82.6463 25.2968 82.7675 24.7715 83.018C24.2461 83.2686 23.8016 83.608 23.4379 84.0445C23.0743 84.4809 22.7995 84.982 22.6055 85.5396C22.4115 86.1054 22.3145 86.6873 22.3145 87.3015C22.3145 87.9157 22.4115 88.4734 22.6055 89.031C22.7995 89.5968 23.0743 90.0979 23.4379 90.5262C23.8016 90.9626 24.2461 91.3101 24.7715 91.5688C25.2968 91.8274 25.8949 91.9567 26.5576 91.9567C27.3173 91.9567 27.9962 91.8112 28.5942 91.5284C29.1923 91.2374 29.6934 90.8576 30.0813 90.3807L31.6088 91.989L31.6007 91.9809Z" fill="#f0eded"/>
<path d="M44.0388 84.3431H50.5287V91.7139C50.1811 92.0291 49.777 92.3362 49.3244 92.6271C48.8719 92.9261 48.3465 93.1848 47.7404 93.4192C47.1423 93.6535 46.4715 93.8313 45.728 93.9768C44.9925 94.1142 44.1601 94.1869 43.2306 94.1869C41.792 94.1869 40.4908 93.9445 39.3351 93.4515C38.1794 92.9585 37.1934 92.2877 36.369 91.431C35.5447 90.5743 34.9143 89.556 34.4859 88.3841C34.0495 87.2122 33.8313 85.9272 33.8313 84.5451C33.8313 83.1631 34.0576 81.9266 34.5102 80.7466C34.9628 79.5666 35.5932 78.5322 36.4094 77.6512C37.2257 76.7784 38.1956 76.0833 39.3351 75.5742C40.4747 75.065 41.7355 74.8145 43.1175 74.8145C44.0954 74.8145 44.9763 74.9276 45.7522 75.162C46.5281 75.3964 47.207 75.6873 47.7889 76.051C48.3708 76.4147 48.8638 76.8026 49.2759 77.231C49.68 77.6593 50.0276 78.0634 50.3024 78.4513L48.4193 80.0597C48.193 79.7445 47.9263 79.4131 47.6191 79.0736C47.3039 78.7342 46.9322 78.419 46.5119 78.1442C46.0836 77.8694 45.5986 77.6351 45.0572 77.4492C44.5157 77.2633 43.8853 77.1744 43.1821 77.1744C42.1638 77.1744 41.2506 77.3684 40.4343 77.7563C39.618 78.1442 38.931 78.6696 38.3653 79.3404C37.7995 80.0031 37.3712 80.787 37.0641 81.6841C36.757 82.5812 36.6034 83.5268 36.6034 84.529C36.6034 85.6039 36.7731 86.5818 37.1045 87.4708C37.4359 88.3598 37.9046 89.1195 38.5027 89.758C39.1007 90.3965 39.812 90.8976 40.6202 91.2532C41.4364 91.6169 42.3255 91.7947 43.3115 91.7947C44.3864 91.7947 45.2915 91.6734 46.0432 91.431C46.7948 91.1885 47.4333 90.8572 47.9667 90.4288V86.6545H44.0307V84.3512L44.0388 84.3431Z" fill="#f0eded"/>
<path d="M53.818 83.4786V82.0804C53.818 81.6844 53.8099 81.2722 53.7856 80.8439H56.1698L56.2506 82.9209C56.3961 82.7027 56.5901 82.4522 56.8325 82.1855C57.075 81.9188 57.366 81.6763 57.7054 81.45C58.0448 81.2318 58.4409 81.0378 58.9015 80.8843C59.3541 80.7307 59.8714 80.6499 60.4694 80.6499C60.7442 80.6499 61.0028 80.6661 61.2372 80.7065C61.4716 80.7469 61.6817 80.8035 61.8838 80.8762L61.3261 83.2038C60.9948 83.0745 60.5664 83.0098 60.0492 83.0098C59.5319 83.0098 59.0147 83.1068 58.5702 83.3169C58.1176 83.519 57.7216 83.8019 57.3902 84.1656C57.0588 84.5292 56.7921 84.9495 56.5982 85.4264C56.4042 85.9113 56.3072 86.4124 56.3072 86.9538V93.7508H53.8099V83.4867L53.818 83.4786Z" fill="#f0eded"/>
<path d="M72.0911 92.1911C71.6143 92.8376 70.9758 93.3226 70.1918 93.6377C69.4079 93.9529 68.5997 94.1065 67.7672 94.1065C67.2338 94.1065 66.7004 94.0419 66.1751 93.8964C65.6498 93.759 65.1648 93.5246 64.7365 93.2013C64.3001 92.878 63.9525 92.4578 63.6858 91.9567C63.4191 91.4475 63.2817 90.8252 63.2817 90.0817C63.2817 88.6997 63.7667 87.5844 64.7365 86.7519C65.7063 85.9195 67.1045 85.5073 68.9391 85.5073C69.2301 85.5073 69.5453 85.5154 69.8847 85.5315C70.2161 85.5477 70.5313 85.5719 70.8303 85.5881C71.1293 85.6043 71.388 85.6285 71.6062 85.6447C71.8244 85.6608 71.986 85.6851 72.0749 85.7013V85.2325C72.0749 84.2707 71.784 83.5838 71.2021 83.1635C70.6202 82.7433 69.8281 82.5412 68.8341 82.5412C67.84 82.5412 67.0803 82.6786 66.5064 82.9453C65.9326 83.212 65.4558 83.4868 65.0679 83.7616L63.904 82.0724C64.1223 81.8866 64.3971 81.7007 64.7042 81.5148C65.0194 81.3289 65.3911 81.1592 65.8114 80.9975C66.2397 80.844 66.7166 80.7147 67.25 80.6096C67.7834 80.5045 68.4057 80.4561 69.1088 80.4561C70.7737 80.4561 72.083 80.8602 73.0367 81.6603C73.9903 82.4604 74.4672 83.608 74.4672 85.087V92.5871C74.4672 93.0397 74.4753 93.4276 74.4995 93.7347H72.1719L72.1153 92.183L72.0911 92.1911ZM72.0668 87.6409C71.9941 87.6248 71.8486 87.6005 71.6385 87.5763C71.4284 87.5439 71.1778 87.5278 70.903 87.5035C70.6283 87.4874 70.3292 87.4631 70.014 87.447C69.6988 87.4308 69.3917 87.4227 69.1008 87.4227C68.3976 87.4227 67.8319 87.5035 67.3955 87.6733C66.959 87.843 66.6196 88.045 66.3691 88.2956C66.1185 88.5461 65.9488 88.8209 65.8599 89.128C65.771 89.4351 65.7225 89.7261 65.7225 90.0009C65.7225 90.704 65.9649 91.2374 66.4418 91.593C66.9267 91.9567 67.5894 92.1345 68.438 92.1345C68.9149 92.1345 69.3755 92.0537 69.812 91.884C70.2484 91.7142 70.6282 91.496 70.9596 91.2212C71.291 90.9465 71.5577 90.6232 71.7597 90.2514C71.9618 89.8796 72.0668 89.4998 72.0668 89.1119V87.6409Z" fill="#f0eded"/>
<path d="M88.0696 75.2515H90.5346V82.7677C90.7043 82.5495 90.9063 82.307 91.1488 82.0484C91.3913 81.7898 91.6822 81.5473 92.0378 81.3291C92.3853 81.1109 92.7975 80.925 93.2582 80.7795C93.7189 80.6341 94.2442 80.5532 94.8423 80.5532C96.5233 80.5532 97.776 81.0462 98.5923 82.0242C99.4086 83.0021 99.8127 84.3356 99.8127 86.0167V93.7511H97.3153V86.2106C97.3153 85.0064 97.0567 84.1255 96.5395 83.5597C96.0222 82.994 95.2868 82.7111 94.3493 82.7111C93.63 82.7111 93.0238 82.8566 92.547 83.1556C92.0621 83.4547 91.6822 83.8345 91.3993 84.3033C91.1084 84.772 90.9063 85.3135 90.777 85.9116C90.6477 86.5096 90.5831 87.1239 90.5831 87.7543V93.743H88.0857V75.2515H88.0696Z" fill="#f0eded"/>
<path d="M106.965 79.0171L116.211 89.6207V75.2509H118.821V93.7425H116.607L106.036 81.9185V93.7425H103.433V78.7666V74.96L106.965 79.0171Z" fill="#f0eded"/>
<path d="M139.632 91.9646C139.059 92.6112 138.355 93.1365 137.515 93.5325C136.674 93.9285 135.697 94.1306 134.589 94.1306C133.555 94.1306 132.617 93.9609 131.777 93.6133C130.936 93.2739 130.225 92.7971 129.643 92.199C129.061 91.6009 128.617 90.8736 128.302 90.033C127.986 89.1925 127.833 88.2712 127.833 87.2771C127.833 86.3315 128.002 85.4505 128.334 84.6181C128.665 83.7857 129.134 83.0583 129.732 82.444C130.33 81.8217 131.041 81.3368 131.866 80.9731C132.69 80.6094 133.603 80.4316 134.597 80.4316C135.688 80.4316 136.65 80.6256 137.483 81.0135C138.315 81.4015 139.026 81.9268 139.616 82.5976L137.984 84.1736C137.596 83.6887 137.127 83.3169 136.569 83.034C136.012 82.7592 135.357 82.6219 134.605 82.6219C133.943 82.6219 133.345 82.7431 132.819 82.9936C132.294 83.2442 131.85 83.5836 131.486 84.02C131.122 84.4565 130.847 84.9495 130.653 85.5152C130.459 86.0809 130.362 86.6628 130.362 87.2771C130.362 87.8913 130.459 88.449 130.653 89.0066C130.847 89.5724 131.122 90.0734 131.486 90.5018C131.85 90.9382 132.294 91.2857 132.819 91.5444C133.345 91.803 133.943 91.9323 134.605 91.9323C135.365 91.9323 136.044 91.7868 136.642 91.5039C137.24 91.213 137.733 90.8331 138.121 90.3563L139.649 91.9646H139.632Z" fill="#f0eded"/>
<path d="M147.997 94.1303C146.995 94.1303 146.082 93.9525 145.249 93.5888C144.417 93.2251 143.698 92.7321 143.1 92.1098C142.501 91.4794 142.025 90.752 141.685 89.9358C141.346 89.1114 141.176 88.2305 141.176 87.2849C141.176 86.3393 141.346 85.4584 141.685 84.634C142.025 83.8096 142.501 83.0903 143.1 82.4599C143.698 81.8296 144.417 81.3366 145.249 80.9809C146.082 80.6173 146.995 80.4395 147.997 80.4395C148.999 80.4395 149.88 80.6173 150.713 80.9809C151.545 81.3446 152.264 81.8376 152.871 82.4599C153.485 83.0903 153.954 83.8096 154.301 84.634C154.641 85.4584 154.818 86.3393 154.818 87.2849C154.818 88.2305 154.649 89.1114 154.301 89.9358C153.962 90.7601 153.485 91.4875 152.871 92.1098C152.264 92.7402 151.545 93.2332 150.713 93.5888C149.88 93.9525 148.975 94.1303 147.997 94.1303ZM147.997 91.9643C148.66 91.9643 149.258 91.827 149.799 91.5602C150.333 91.2935 150.785 90.946 151.157 90.5096C151.529 90.0732 151.812 89.5802 151.998 89.0144C152.192 88.4487 152.289 87.8749 152.289 87.2849C152.289 86.6949 152.192 86.1453 151.998 85.5796C151.804 85.0138 151.521 84.5128 151.141 84.0683C150.761 83.6237 150.309 83.2681 149.783 83.0014C149.25 82.7347 148.66 82.5973 147.997 82.5973C147.334 82.5973 146.728 82.7266 146.195 83.0014C145.662 83.2681 145.209 83.6238 144.837 84.0521C144.465 84.4885 144.191 84.9896 143.989 85.5473C143.795 86.113 143.698 86.6868 143.698 87.2849C143.698 87.8829 143.795 88.4487 143.989 89.0063C144.183 89.564 144.473 90.057 144.853 90.5015C145.233 90.946 145.686 91.3016 146.211 91.5683C146.736 91.835 147.334 91.9724 147.997 91.9724" fill="#f0eded"/>
<path d="M160.12 75.2515H157.631V93.743H160.12V75.2515Z" fill="#f0eded"/>
<path d="M124.955 80.8525H122.458V93.7433H124.955V80.8525Z" fill="#f0eded"/>
<path d="M124.996 75.8408H122.402V78.4351H124.996V75.8408Z" fill="#f0eded"/>
<path d="M81.4502 80.8523V76.6416H78.9528V80.8523H76.6252V82.9294H78.9528V89.5243C78.9528 91.0922 79.2761 92.2479 79.9065 92.9914C80.545 93.735 81.5472 94.0987 82.913 94.0987C83.5515 94.0987 84.1172 94.0178 84.6102 93.8562V91.8115C84.2385 91.9246 83.8505 91.9812 83.4383 91.9812C83.3899 91.9812 83.3414 91.9812 83.2929 91.9812C82.7029 91.9812 82.2422 91.7872 81.9189 91.3993C81.5957 91.0114 81.434 90.3001 81.434 89.2656V82.9132H85.2083V80.8361H81.434L81.4502 80.8523Z" fill="#f0eded"/>
<path d="M80.0279 25.6198L51.4824 0V56.3556H63.2416V26.2745L96.8788 56.3394H96.895L108.646 56.3475V0.00808061L80.0279 25.6198ZM53.5675 4.68754L96.8788 43.5618V47.0694L56.3235 10.8137V54.2704H53.5675V4.68754ZM101.704 54.2704H98.972V21.6031L87.2451 32.1016L85.1923 30.2589L101.704 15.477V54.2624V54.2704ZM96.8788 40.7493L88.8049 33.5079L96.8788 26.2826V40.7574V40.7493ZM61.1484 21.6031V54.2624H58.4167V15.477L96.8869 49.8738V53.535L61.1565 21.595L61.1484 21.6031ZM106.553 54.2624H103.797V10.7975L83.6324 28.8446L81.5958 27.018L106.561 4.67138V54.2543L106.553 54.2624Z" fill="#f0eded"/>
</svg>