<svg xmlns="http://www.w3.org/2000/svg" xmlns:xlink="http://www.w3.org/1999/xlink" width="793" zoomAndPan="magnify" viewBox="0 0 594.95996 141.750002" height="188" preserveAspectRatio="xMidYMid meet" version="1.0"><defs><g/><clipPath id="a82c327c05"><path d="M 25.855469 25.191406 L 103 25.191406 L 103 105 L 25.855469 105 Z M 25.855469 25.191406 " clip-rule="nonzero"/></clipPath><clipPath id="181016703b"><path d="M 313 47 L 350.511719 47 L 350.511719 99 L 313 99 Z M 313 47 " clip-rule="nonzero"/></clipPath><clipPath id="4c268cb1bb"><path d="M 30 90 L 46 90 L 46 105.230469 L 30 105.230469 Z M 30 90 " clip-rule="nonzero"/></clipPath></defs><g fill="#eb539e" fill-opacity="1"><g transform="translate(365.392759, 98.380201)"><g><path d="M 19.25 -0.09375 C 29.757812 -1.117188 41.195312 -10.414062 47.609375 -23.246094 C 47.703125 -23.621094 47.796875 -23.898438 47.796875 -24.085938 C 47.796875 -25.105469 47.054688 -25.945312 45.9375 -25.945312 C 45.191406 -25.945312 44.636719 -25.574219 44.261719 -24.921875 C 39.054688 -14.414062 28.175781 -3.71875 17.015625 -3.71875 C 7.53125 -3.71875 3.71875 -11.996094 3.71875 -22.410156 C 3.71875 -30.59375 6.042969 -39.800781 9.671875 -47.609375 C 15.0625 -59.421875 21.292969 -63.046875 25.945312 -63.046875 C 30.964844 -63.046875 34.40625 -58.863281 34.128906 -56.167969 C 34.035156 -55.050781 34.871094 -54.121094 35.988281 -54.121094 C 37.011719 -54.121094 37.753906 -54.769531 37.847656 -55.792969 C 38.3125 -60.628906 33.105469 -66.765625 25.945312 -66.765625 C 19.898438 -66.765625 12.554688 -62.394531 6.324219 -49.191406 C 2.324219 -40.730469 0 -31.058594 0 -22.503906 C 0 -10.136719 4.929688 0 16.832031 0 L 18.039062 0 C 18.410156 0 18.785156 0 19.25 -0.09375 Z M 19.25 -0.09375 "/></g></g></g><g fill="#eb539e" fill-opacity="1"><g transform="translate(408.721635, 98.380201)"><g><path d="M 15.0625 19.15625 C 18.320312 12.183594 20.085938 2.789062 21.109375 -4.835938 L 31.800781 -15.53125 C 35.429688 -19.15625 38.589844 -23.0625 41.378906 -27.339844 C 41.566406 -27.617188 41.660156 -27.898438 41.660156 -28.269531 C 41.660156 -28.921875 41.378906 -29.476562 40.824219 -29.851562 C 40.542969 -30.035156 40.171875 -30.128906 39.707031 -30.128906 C 39.054688 -30.128906 38.496094 -29.851562 38.21875 -29.386719 C 33.753906 -22.410156 27.710938 -16.550781 21.757812 -10.695312 C 22.410156 -16.273438 22.503906 -21.757812 22.503906 -26.59375 C 22.503906 -30.316406 22.410156 -33.570312 22.132812 -36.265625 C 22.039062 -37.289062 21.292969 -37.941406 20.457031 -37.941406 C 19.433594 -38.03125 18.785156 -37.566406 18.503906 -36.546875 C 15.996094 -26.410156 10.507812 -18.597656 6.136719 -17.667969 C 4.183594 -17.296875 3.347656 -18.597656 3.347656 -21.109375 C 3.347656 -24.175781 4.648438 -28.828125 6.972656 -33.570312 C 7.066406 -33.753906 7.066406 -34.035156 7.066406 -34.3125 C 7.066406 -35.335938 6.417969 -36.265625 5.207031 -36.265625 C 4.464844 -36.265625 3.90625 -35.894531 3.625 -35.242188 C 0.742188 -29.386719 -0.371094 -24.734375 -0.371094 -21.292969 C -0.371094 -16.367188 1.953125 -13.855469 5.207031 -13.855469 C 9.300781 -13.855469 14.785156 -17.855469 18.785156 -26.316406 C 18.785156 -19.992188 18.410156 -13.296875 17.574219 -6.601562 C 5.019531 5.953125 0.742188 16.085938 0.742188 22.039062 C 0.742188 26.039062 2.695312 28.175781 5.300781 28.175781 C 8.277344 28.175781 12.183594 25.386719 15.0625 19.15625 Z M 4.835938 24.085938 C 4.648438 23.710938 4.554688 23.15625 4.554688 22.410156 C 4.554688 20.644531 5.113281 18.039062 6.882812 14.226562 C 8.460938 10.878906 11.34375 5.953125 16.644531 -0.09375 C 12.648438 23.898438 5.300781 25.292969 4.835938 24.085938 Z M 4.835938 24.085938 "/></g></g></g><g fill="#eb539e" fill-opacity="1"><g transform="translate(445.72784, 98.380201)"><g><path d="M 2.046875 -5.859375 C 3.070312 -5.859375 3.8125 -6.789062 3.8125 -7.8125 C 3.8125 -9.390625 3.71875 -11.066406 3.71875 -12.648438 C 3.71875 -14.972656 3.8125 -17.203125 3.90625 -19.527344 C 4.648438 -27.988281 13.949219 -34.3125 17.945312 -34.3125 C 18.597656 -34.3125 19.15625 -34.128906 19.433594 -33.753906 C 19.808594 -33.289062 19.992188 -32.640625 19.992188 -31.894531 C 19.992188 -30.316406 19.34375 -28.269531 18.96875 -27.152344 C 7.902344 -22.96875 4.089844 -17.574219 4.089844 -14.226562 C 4.089844 -12.089844 5.578125 -10.695312 7.8125 -10.695312 C 11.160156 -10.695312 16.738281 -14.132812 19.992188 -20.363281 C 20.738281 -21.757812 21.203125 -23.0625 21.851562 -24.269531 C 25.851562 -25.664062 29.476562 -26.316406 32.917969 -26.316406 C 33.941406 -26.316406 34.777344 -27.152344 34.777344 -28.175781 C 34.777344 -29.199219 33.941406 -30.035156 32.917969 -30.035156 C 29.851562 -30.035156 26.59375 -29.570312 23.246094 -28.640625 C 23.527344 -29.851562 23.710938 -30.871094 23.710938 -31.894531 C 23.710938 -35.894531 21.292969 -37.941406 18.039062 -37.941406 C 15.34375 -37.941406 11.996094 -36.636719 8.648438 -34.035156 C 11.34375 -38.40625 13.578125 -43.054688 15.34375 -48.074219 C 17.480469 -54.027344 18.226562 -58.117188 18.226562 -61.09375 C 18.226562 -65.277344 16.550781 -66.859375 14.785156 -66.859375 C 13.578125 -66.859375 12.460938 -66.394531 11.625 -65.371094 C 8.925781 -62.488281 5.859375 -54.957031 3.625 -45.65625 C 1.300781 -35.894531 0 -24.828125 0 -13.019531 L 0 -10.320312 C 0 -9.484375 0 -8.554688 0.09375 -7.625 C 0.09375 -6.601562 0.929688 -5.859375 1.953125 -5.859375 Z M 5.488281 -36.082031 C 7.4375 -48.726562 11.625 -60.070312 14.414062 -62.863281 C 14.507812 -62.394531 14.597656 -61.839844 14.597656 -61.09375 C 14.597656 -56.167969 11.25 -45.285156 5.488281 -36.082031 Z M 7.8125 -14.320312 C 7.253906 -14.878906 9.578125 -18.410156 16.738281 -22.132812 C 13.949219 -16.832031 9.484375 -14.597656 7.8125 -14.320312 Z M 7.8125 -14.320312 "/></g></g></g><g fill="#eb539e" fill-opacity="1"><g transform="translate(476.597336, 98.380201)"><g><path d="M 9.765625 -12.367188 C 15.808594 -12.367188 23.246094 -15.808594 30.222656 -27.246094 C 30.40625 -27.523438 30.5 -27.804688 30.5 -28.175781 C 30.5 -29.011719 30.222656 -29.476562 29.570312 -29.757812 C 29.292969 -29.941406 28.921875 -30.035156 28.640625 -30.035156 C 27.988281 -30.035156 27.433594 -29.757812 27.058594 -29.199219 C 23.804688 -23.710938 20.273438 -20.085938 16.550781 -17.945312 C 14.414062 -16.832031 11.902344 -16.085938 9.390625 -16.085938 C 5.953125 -16.085938 2.976562 -17.574219 2.976562 -21.574219 C 2.976562 -22.039062 3.070312 -22.503906 3.160156 -23.15625 C 9.390625 -23.621094 16.738281 -28.175781 16.738281 -33.105469 C 16.738281 -35.800781 14.691406 -37.941406 11.714844 -37.941406 C 9.855469 -37.941406 7.625 -37.101562 5.300781 -34.871094 C 1.671875 -31.429688 -0.652344 -26.128906 -0.652344 -21.574219 C -0.652344 -16.644531 2.230469 -12.367188 9.765625 -12.367188 Z M 4.464844 -27.152344 C 6.972656 -32.359375 10.042969 -34.21875 11.808594 -34.21875 C 12.460938 -34.21875 12.832031 -34.035156 12.925781 -33.570312 C 13.390625 -31.429688 9.019531 -27.898438 4.464844 -27.152344 Z M 4.464844 -27.152344 "/></g></g></g><g fill="#eb539e" fill-opacity="1"><g transform="translate(502.445887, 98.380201)"><g><path d="M 1.859375 -13.113281 C 2.882812 -13.113281 3.71875 -13.855469 3.71875 -14.878906 C 4.183594 -24.828125 13.855469 -35.800781 18.691406 -34.871094 C 19.714844 -34.59375 20.550781 -35.242188 20.828125 -36.265625 C 21.109375 -37.289062 20.457031 -38.21875 19.433594 -38.496094 C 18.785156 -38.589844 18.320312 -38.683594 17.945312 -38.683594 C 12.738281 -38.683594 7.253906 -32.640625 4.554688 -28.175781 C 4.835938 -30.871094 4.929688 -33.664062 4.929688 -36.546875 C 4.929688 -37.566406 4.089844 -38.40625 3.070312 -38.40625 C 2.046875 -38.40625 1.207031 -37.566406 1.207031 -36.546875 C 1.117188 -29.476562 0.09375 -22.316406 0 -14.972656 C 0 -13.949219 0.835938 -13.203125 1.859375 -13.113281 Z M 1.859375 -13.113281 "/></g></g></g><g clip-path="url(#a82c327c05)"><path fill="#2aaae1" d="M 25.855469 50.332031 C 26.375 48.832031 26.972656 47.382812 28.203125 46.292969 C 30.5 44.257812 33.105469 43.695312 35.957031 44.789062 C 38.769531 45.871094 40.558594 48 40.652344 51.023438 C 40.832031 56.839844 43.851562 60.449219 48.941406 62.605469 C 49.914062 63.03125 50.925781 63.25 51.984375 63.265625 C 53.042969 63.28125 54.0625 63.09375 55.042969 62.695312 C 57.011719 61.953125 59.035156 61.761719 61.105469 62.125 C 62.625 62.363281 64.054688 61.890625 65.421875 61.277344 C 68.976562 59.691406 71.929688 57.269531 74.625 54.5 C 78.191406 50.839844 81.191406 46.773438 83.132812 41.996094 C 84.003906 39.847656 84.332031 37.613281 84.117188 35.304688 C 83.738281 30.691406 86.859375 26.621094 91.355469 25.558594 C 91.566406 25.507812 91.804688 25.542969 91.964844 25.347656 L 95.195312 25.347656 C 95.421875 25.6875 95.816406 25.601562 96.128906 25.699219 C 96.667969 25.859375 97.1875 26.066406 97.691406 26.320312 C 98.195312 26.574219 98.671875 26.875 99.121094 27.214844 C 99.570312 27.554688 99.984375 27.933594 100.367188 28.347656 C 100.75 28.761719 101.089844 29.207031 101.394531 29.683594 C 101.695312 30.164062 101.953125 30.664062 102.167969 31.183594 C 102.378906 31.707031 102.546875 32.246094 102.664062 32.800781 C 102.78125 33.351562 102.847656 33.910156 102.863281 34.476562 C 102.882812 35.042969 102.851562 35.605469 102.765625 36.164062 C 102.144531 40.714844 98.128906 44.207031 93.457031 44.195312 C 91.546875 44.195312 89.867188 44.890625 88.257812 45.789062 C 83.464844 48.460938 79.6875 52.277344 76.433594 56.628906 C 74.128906 59.71875 72.164062 63.003906 71.207031 66.800781 C 70.78125 68.332031 70.773438 69.867188 71.179688 71.402344 C 71.679688 73.183594 71.714844 74.976562 71.292969 76.777344 C 70.601562 79.746094 71.535156 82.308594 73.320312 84.601562 C 75.574219 87.492188 78.449219 89.371094 82.199219 89.648438 C 82.769531 89.675781 83.335938 89.636719 83.894531 89.53125 C 87.949219 88.816406 92.019531 91.765625 92.527344 95.804688 C 93.097656 100.335938 89.976562 104.175781 85.5 104.4375 C 81.34375 104.679688 77.605469 101.28125 77.734375 97.078125 C 77.90625 91.542969 72.382812 85.816406 66.597656 85.453125 C 65.582031 85.410156 64.597656 85.570312 63.644531 85.929688 C 56.042969 88.621094 48.472656 84.195312 47.050781 76.238281 C 46.832031 74.980469 46.769531 73.6875 47.074219 72.449219 C 47.960938 68.824219 46.796875 65.777344 44.367188 63.191406 C 41.585938 60.230469 38.277344 58.570312 34.027344 59.222656 C 30.671875 59.742188 27.34375 57.460938 26.214844 54.148438 C 26.105469 53.832031 26.160156 53.445312 25.867188 53.195312 Z M 25.855469 50.332031 " fill-opacity="1" fill-rule="nonzero"/></g><g clip-path="url(#181016703b)"><path fill="#0e1938" d="M 350.507812 95.539062 C 350 96.585938 349.371094 97.5 348.164062 97.828125 C 346.15625 98.378906 344.5 97.257812 343.945312 94.992188 C 343.722656 94.910156 343.589844 95.074219 343.4375 95.183594 C 342.03125 96.179688 340.507812 96.929688 338.859375 97.433594 C 337.214844 97.933594 335.53125 98.164062 333.8125 98.121094 C 331.101562 98.066406 328.378906 98.328125 325.691406 97.648438 C 318.320312 95.789062 313.011719 88.789062 313.277344 81.207031 C 313.554688 73.292969 319.136719 66.746094 326.777344 65.363281 C 327.898438 65.164062 329.03125 65.0625 330.171875 65.058594 C 334.445312 65.046875 338.722656 65.03125 342.988281 65.074219 C 343.785156 65.074219 343.996094 64.882812 343.96875 64.085938 C 343.953125 63.449219 343.875 62.820312 343.738281 62.199219 C 343.597656 61.574219 343.402344 60.972656 343.152344 60.390625 C 342.898438 59.804688 342.589844 59.253906 342.230469 58.726562 C 341.871094 58.203125 341.464844 57.71875 341.011719 57.273438 C 340.558594 56.828125 340.070312 56.429688 339.539062 56.082031 C 339.011719 55.730469 338.453125 55.433594 337.867188 55.191406 C 337.28125 54.949219 336.675781 54.765625 336.054688 54.640625 C 335.433594 54.515625 334.804688 54.453125 334.171875 54.449219 C 329.867188 54.421875 325.5625 54.449219 321.253906 54.4375 C 318.730469 54.421875 317.140625 52.417969 317.832031 50.144531 C 318.234375 48.847656 319.148438 47.90625 320.492188 47.890625 C 325.8125 47.832031 331.148438 47.417969 336.425781 48.054688 C 343.617188 48.917969 349.082031 54.449219 350.296875 61.601562 C 350.320312 61.753906 350.28125 61.929688 350.488281 61.972656 Z M 343.949219 77.628906 C 343.949219 75.683594 343.914062 74.09375 343.96875 72.507812 C 343.992188 71.820312 343.777344 71.679688 343.125 71.683594 C 338.664062 71.710938 334.195312 71.691406 329.738281 71.699219 C 324.828125 71.699219 320.605469 75.390625 319.949219 80.222656 C 319.867188 80.820312 319.839844 81.417969 319.867188 82.015625 C 319.894531 82.617188 319.972656 83.207031 320.109375 83.792969 C 320.242188 84.378906 320.425781 84.949219 320.660156 85.5 C 320.898438 86.050781 321.179688 86.578125 321.511719 87.078125 C 321.84375 87.578125 322.214844 88.042969 322.628906 88.476562 C 323.042969 88.90625 323.496094 89.296875 323.980469 89.648438 C 324.464844 90 324.976562 90.304688 325.519531 90.558594 C 326.058594 90.816406 326.617188 91.023438 327.195312 91.179688 C 329.5 91.804688 331.851562 91.507812 334.183594 91.515625 C 338.753906 91.527344 342.730469 88.21875 343.707031 83.730469 C 344.167969 81.59375 343.84375 79.425781 343.949219 77.628906 Z M 343.949219 77.628906 " fill-opacity="1" fill-rule="nonzero"/></g><g clip-path="url(#4c268cb1bb)"><path fill="#2aaae1" d="M 35.734375 105.078125 C 33.445312 104.195312 31.699219 102.738281 30.851562 100.363281 C 30.6875 99.90625 30.570312 99.441406 30.5 98.964844 C 30.429688 98.484375 30.402344 98.003906 30.425781 97.523438 C 30.445312 97.039062 30.515625 96.5625 30.628906 96.09375 C 30.742188 95.625 30.898438 95.167969 31.101562 94.730469 C 31.304688 94.292969 31.546875 93.878906 31.828125 93.484375 C 32.109375 93.09375 32.429688 92.734375 32.78125 92.40625 C 33.132812 92.074219 33.515625 91.785156 33.921875 91.53125 C 34.332031 91.273438 34.761719 91.0625 35.210938 90.890625 C 35.660156 90.722656 36.125 90.59375 36.597656 90.515625 C 37.074219 90.433594 37.550781 90.402344 38.03125 90.414062 C 38.511719 90.429688 38.988281 90.488281 39.457031 90.59375 C 39.925781 90.703125 40.382812 90.851562 40.820312 91.046875 C 41.261719 91.242188 41.679688 91.480469 42.074219 91.757812 C 42.46875 92.035156 42.832031 92.347656 43.164062 92.695312 C 43.5 93.042969 43.796875 93.417969 44.058594 93.824219 C 44.316406 94.234375 44.535156 94.660156 44.714844 95.109375 C 44.890625 95.558594 45.023438 96.019531 45.113281 96.496094 C 45.199219 96.972656 45.242188 97.449219 45.234375 97.933594 C 45.230469 98.417969 45.179688 98.894531 45.082031 99.367188 C 44.984375 99.84375 44.839844 100.300781 44.65625 100.746094 C 44.46875 101.191406 44.238281 101.617188 43.972656 102.015625 C 43.703125 102.417969 43.398438 102.789062 43.054688 103.128906 C 42.714844 103.46875 42.34375 103.773438 41.945312 104.042969 C 41.542969 104.3125 41.121094 104.539062 40.679688 104.726562 C 40.421875 104.835938 40.167969 104.957031 39.917969 105.078125 Z M 35.734375 105.078125 " fill-opacity="1" fill-rule="nonzero"/></g><path fill="#0e1938" d="M 170.535156 94.859375 C 168.644531 96.210938 166.671875 97.339844 164.429688 97.671875 C 159.71875 98.378906 154.960938 98.730469 150.386719 96.996094 C 143.265625 94.296875 138.921875 86.722656 140.0625 79.246094 C 141.265625 71.394531 147.496094 65.550781 155.421875 65.148438 C 160.125 64.910156 164.851562 65.042969 169.566406 65.070312 C 170.402344 65.070312 170.613281 64.878906 170.597656 64.027344 C 170.503906 58.84375 166.109375 54.472656 160.84375 54.4375 C 156.507812 54.414062 152.171875 54.453125 147.835938 54.425781 C 145.039062 54.414062 143.414062 51.710938 144.796875 49.40625 C 145.332031 48.511719 146.125 47.867188 147.167969 47.867188 C 152.546875 47.867188 157.945312 47.421875 163.292969 48.058594 C 170.785156 48.957031 176.882812 55.667969 177.0625 63.242188 C 177.253906 71.023438 177.148438 78.808594 177.167969 86.59375 C 177.167969 89.230469 177.1875 91.871094 177.167969 94.507812 C 177.152344 96.136719 176.277344 97.359375 174.90625 97.792969 C 174.582031 97.898438 174.25 97.953125 173.90625 97.953125 C 173.5625 97.957031 173.230469 97.90625 172.902344 97.804688 C 172.574219 97.699219 172.273438 97.550781 171.992188 97.355469 C 171.710938 97.15625 171.464844 96.921875 171.257812 96.648438 C 170.855469 96.152344 170.703125 95.550781 170.535156 94.859375 Z M 162.792969 71.699219 C 160.609375 71.699219 158.421875 71.699219 156.242188 71.699219 C 151.320312 71.714844 147.199219 75.46875 146.535156 80.53125 C 145.925781 85.199219 149.117188 89.929688 153.757812 91.15625 C 156.367188 91.847656 159.058594 91.667969 161.683594 91.445312 C 166.8125 91.007812 170.582031 86.675781 170.585938 81.539062 C 170.585938 78.519531 170.570312 75.5 170.597656 72.480469 C 170.597656 71.875 170.46875 71.667969 169.824219 71.679688 C 167.476562 71.722656 165.136719 71.699219 162.792969 71.699219 Z M 162.792969 71.699219 " fill-opacity="1" fill-rule="nonzero"/><path fill="#0e1938" d="M 288.308594 91.566406 L 289.460938 91.566406 C 296.074219 91.566406 302.691406 91.566406 309.308594 91.566406 C 311.945312 91.566406 313.542969 94.164062 312.308594 96.421875 C 311.695312 97.550781 310.699219 98.109375 309.429688 98.109375 C 300.410156 98.109375 291.382812 98.140625 282.367188 98.097656 C 279.625 98.085938 278.25 95.3125 279.746094 92.882812 C 282.203125 88.886719 284.714844 84.925781 287.203125 80.953125 C 292.597656 72.328125 297.988281 63.703125 303.382812 55.082031 C 303.5 54.890625 303.601562 54.699219 303.796875 54.367188 L 302.703125 54.367188 C 296.089844 54.367188 289.472656 54.316406 282.859375 54.398438 C 280.566406 54.425781 279.25 52.710938 279.269531 51.078125 C 279.300781 49.191406 280.777344 47.847656 282.859375 47.847656 C 291.625 47.847656 300.394531 47.847656 309.164062 47.835938 C 310.59375 47.835938 311.804688 48.1875 312.539062 49.5 C 313.273438 50.816406 312.988281 52.089844 312.203125 53.339844 C 304.425781 65.746094 296.660156 78.15625 288.910156 90.570312 C 288.730469 90.859375 288.558594 91.152344 288.308594 91.566406 Z M 288.308594 91.566406 " fill-opacity="1" fill-rule="nonzero"/><path fill="#0e1938" d="M 274.152344 78.964844 C 274.152344 84.148438 274.085938 89.328125 274.179688 94.507812 C 274.226562 96.875 272.585938 98.269531 270.90625 98.246094 C 268.917969 98.21875 267.664062 96.804688 267.664062 94.488281 C 267.664062 84.570312 267.671875 74.652344 267.691406 64.734375 C 267.691406 60.347656 265.875 57 261.839844 55.230469 C 256.507812 52.890625 249.472656 54.8125 247.46875 61.457031 C 247.121094 62.601562 247.085938 63.769531 247.085938 64.945312 C 247.085938 74.894531 247.085938 84.84375 247.085938 94.792969 C 247.085938 97.308594 244.882812 98.894531 242.644531 98.015625 C 241.375 97.519531 240.628906 96.375 240.625 94.871094 C 240.617188 90.960938 240.617188 87.050781 240.625 83.140625 L 240.625 64.363281 C 240.625 55.203125 247.386719 48.15625 256.5 47.839844 C 263.679688 47.589844 269.109375 50.511719 272.511719 56.941406 C 273.648438 59.125 274.195312 61.445312 274.160156 63.910156 C 274.144531 68.921875 274.140625 73.941406 274.152344 78.964844 Z M 274.152344 78.964844 " fill-opacity="1" fill-rule="nonzero"/><path fill="#0e1938" d="M 206.707031 73.023438 L 206.707031 64.816406 C 206.707031 55.445312 213.808594 48.109375 223.148438 47.890625 C 226.21875 47.816406 229.289062 47.851562 232.359375 47.890625 C 234.136719 47.910156 235.523438 49.132812 235.75 50.761719 C 235.804688 51.152344 235.792969 51.539062 235.714844 51.925781 C 235.632812 52.308594 235.492188 52.667969 235.285156 53.003906 C 235.078125 53.335938 234.824219 53.625 234.515625 53.871094 C 234.210938 54.113281 233.871094 54.300781 233.5 54.421875 C 233.066406 54.574219 232.628906 54.550781 232.1875 54.558594 C 228.804688 54.628906 225.410156 54.34375 222.035156 54.703125 C 217.195312 55.214844 213.371094 59.570312 213.359375 64.457031 C 213.359375 65.886719 213.394531 67.320312 213.339844 68.75 C 213.3125 69.4375 213.53125 69.578125 214.1875 69.578125 C 219.410156 69.550781 224.636719 69.546875 229.859375 69.566406 C 231.816406 69.566406 233.128906 70.519531 233.484375 72.121094 C 233.972656 74.332031 232.449219 76.226562 230.109375 76.261719 C 227.800781 76.296875 225.488281 76.273438 223.175781 76.273438 C 220.167969 76.273438 217.160156 76.292969 214.15625 76.253906 C 213.46875 76.253906 213.308594 76.445312 213.34375 77.101562 C 213.457031 79.128906 213.15625 81.167969 213.515625 83.1875 C 213.613281 83.757812 213.765625 84.316406 213.960938 84.863281 C 214.160156 85.410156 214.402344 85.933594 214.691406 86.433594 C 214.980469 86.9375 215.308594 87.410156 215.679688 87.855469 C 216.050781 88.300781 216.457031 88.710938 216.902344 89.085938 C 217.34375 89.457031 217.8125 89.789062 218.3125 90.082031 C 218.8125 90.371094 219.332031 90.617188 219.875 90.816406 C 220.417969 91.019531 220.972656 91.167969 221.542969 91.273438 C 222.109375 91.375 222.683594 91.425781 223.261719 91.429688 C 226.238281 91.429688 229.210938 91.402344 232.191406 91.441406 C 234.785156 91.476562 236.402344 93.640625 235.578125 95.917969 C 235.128906 97.15625 234.234375 98.054688 232.929688 98.058594 C 228.695312 98.058594 224.4375 98.5 220.230469 97.816406 C 212.59375 96.570312 206.714844 89.476562 206.710938 81.695312 C 206.707031 78.804688 206.707031 75.914062 206.707031 73.023438 Z M 206.707031 73.023438 " fill-opacity="1" fill-rule="nonzero"/><path fill="#0e1938" d="M 116.472656 75.160156 C 116.472656 68.671875 116.445312 62.195312 116.496094 55.714844 C 116.496094 54.757812 116.222656 54.59375 115.355469 54.605469 C 111.589844 54.660156 107.824219 54.632812 104.058594 54.628906 C 101.890625 54.628906 100.480469 53.3125 100.488281 51.3125 C 100.488281 49.375 101.925781 48.042969 104.019531 48.042969 L 135.632812 48.042969 C 137.753906 48.042969 139.203125 49.417969 139.183594 51.398438 C 139.164062 53.328125 137.738281 54.625 135.617188 54.628906 C 131.851562 54.628906 128.085938 54.628906 124.320312 54.628906 C 122.835938 54.628906 123.039062 54.4375 123.039062 55.964844 C 123.039062 68.769531 123.039062 81.574219 123.039062 94.378906 C 123.039062 95.90625 122.550781 97.136719 121.140625 97.8125 C 118.921875 98.863281 116.488281 97.277344 116.484375 94.796875 C 116.46875 88.25 116.464844 81.703125 116.472656 75.160156 Z M 116.472656 75.160156 " fill-opacity="1" fill-rule="nonzero"/><path fill="#0e1938" d="M 182.007812 66.835938 C 182.007812 61.78125 182.078125 56.71875 181.972656 51.679688 C 181.929688 49.441406 183.554688 47.929688 185.269531 47.9375 C 187.308594 47.9375 188.648438 49.378906 188.652344 51.6875 C 188.652344 61.570312 188.640625 71.453125 188.664062 81.332031 C 188.675781 85.542969 190.675781 88.566406 194.363281 90.484375 C 195.660156 91.136719 197.03125 91.453125 198.480469 91.4375 C 199.683594 91.449219 200.890625 91.410156 202.089844 91.527344 C 203.726562 91.6875 204.917969 93.148438 204.90625 94.820312 C 204.90625 96.449219 203.734375 97.957031 202.140625 98.066406 C 198.59375 98.289062 195.035156 98.296875 191.742188 96.652344 C 185.53125 93.546875 182.179688 88.523438 182.03125 81.523438 C 181.925781 76.621094 182.007812 71.726562 182.007812 66.835938 Z M 182.007812 66.835938 " fill-opacity="1" fill-rule="nonzero"/></svg>